{
	"asset":{
		"generator":"Khronos glTF Blender I/O v4.1.63",
		"version":"2.0"
	},
	"extensionsUsed":[
		"KHR_lights_punctual"
	],
	"extensionsRequired":[
		"KHR_lights_punctual"
	],
	"extensions":{
		"KHR_lights_punctual":{
			"lights":[
				{
					"color":[
						1,
						1,
						1
					],
					"intensity":5435.141306588225,
					"type":"point",
					"range":20,
					"name":"PointLight"
				},
				{
					"color":[
						1,
						1,
						1
					],
					"intensity":68.30000101774931,
					"type":"directional",
					"name":"Sun"
				}
			]
		}
	},
	"scene":0,
	"scenes":[
		{
			"name":"Scene",
			"nodes":[
				0,
				1,
				2,
				3,
				4,
				5,
				6,
				7,
				8,
				9,
				10,
				11,
				12,
				13,
				14
			]
		}
	],
	"nodes":[
		{
			"mesh":0,
			"name":"Ground",
			"scale":[
				10,
				1,
				10
			]
		},
		{
			"extensions":{
				"KHR_lights_punctual":{
					"light":0
				}
			},
			"name":"PointLight",
			"rotation":[
				-0.7071068286895752,
				0,
				0,
				0.7071068286895752
			],
			"translation":[
				0,
				4.5,
				0
			]
		},
		{
			"camera":0,
			"name":"Camera",
			"translation":[
				0,
				1.5685935020446777,
				24.775314331054688
			]
		},
		{
			"mesh":1,
			"name":"Cylinder",
			"translation":[
				0,
				1.7345080375671387,
				0
			]
		},
		{
			"mesh":2,
			"name":"Cylinder.001",
			"rotation":[
				0.03031337819993496,
				0.13150840997695923,
				0.222560316324234,
				0.9655327796936035
			],
			"translation":[
				0.744942307472229,
				1.2826755046844482,
				0
			]
		},
		{
			"mesh":3,
			"name":"Cylinder.002",
			"rotation":[
				0.26258087158203125,
				-0.0044667464680969715,
				-0.11238102614879608,
				0.9583328366279602
			],
			"translation":[
				-0.5377061367034912,
				1.4804966449737549,
				0
			]
		},
		{
			"mesh":4,
			"name":"Cylinder.003",
			"rotation":[
				-0.13203255832195282,
				0,
				0,
				0.9912453889846802
			],
			"translation":[
				0,
				0.7410950660705566,
				0.5041707754135132
			]
		},
		{
			"mesh":5,
			"name":"Wall_Ceil",
			"scale":[
				10,
				0.5,
				10
			],
			"translation":[
				0,
				8.5,
				0
			]
		},
		{
			"mesh":6,
			"name":"Ball",
			"translation":[
				0,
				4.5,
				0
			]
		},
		{
			"mesh":7,
			"name":"Wall_Back",
			"rotation":[
				0.70710688829422,
				0,
				0,
				0.7071066498756409
			],
			"scale":[
				10,
				0.4999999701976776,
				4.999999523162842
			],
			"translation":[
				0,
				4,
				-10
			]
		},
		{
			"mesh":8,
			"name":"Wall_Right",
			"rotation":[
				0.5,
				0.5,
				-0.5,
				0.5
			],
			"scale":[
				10,
				0.5,
				5
			],
			"translation":[
				10,
				4,
				0
			]
		},
		{
			"mesh":9,
			"name":"Wall_Left",
			"rotation":[
				0.5,
				0.5,
				-0.5,
				0.5
			],
			"scale":[
				10,
				0.5,
				5
			],
			"translation":[
				-10,
				4,
				0
			]
		},
		{
			"mesh":10,
			"name":"Ground.001",
			"scale":[
				10,
				1,
				10
			],
			"translation":[
				0,
				0,
				20
			]
		},
		{
			"mesh":11,
			"name":"Wall_Door",
			"rotation":[
				0.7071068286895752,
				0,
				0,
				0.7071068286895752
			],
			"scale":[
				10,
				0.5,
				5
			],
			"translation":[
				0,
				4,
				10
			]
		},
		{
			"extensions":{
				"KHR_lights_punctual":{
					"light":1
				}
			},
			"name":"Sun",
			"rotation":[
				-0.9238795638084412,
				0,
				0,
				0.3826834261417389
			],
			"translation":[
				0,
				15,
				0
			]
		}
	],
	"cameras":[
		{
			"name":"Camera",
			"perspective":{
				"aspectRatio":1.7777777777777777,
				"yfov":0.39959652046304894,
				"zfar":100,
				"znear":0.10000000149011612
			},
			"type":"perspective"
		}
	],
	"materials":[
		{
			"doubleSided":true,
			"name":"Material",
			"pbrMetallicRoughness":{
				"baseColorFactor":[
					0.800000011920929,
					0.800000011920929,
					0.800000011920929,
					1
				],
				"metallicFactor":0,
				"roughnessFactor":0.5
			}
		},
		{
			"doubleSided":true,
			"name":"Material.001",
			"pbrMetallicRoughness":{
				"baseColorFactor":[
					0.800000011920929,
					0.800000011920929,
					0.800000011920929,
					1
				],
				"metallicFactor":0,
				"roughnessFactor":0.5
			}
		},
		{
			"doubleSided":true,
			"name":"Material.002",
			"pbrMetallicRoughness":{
				"baseColorFactor":[
					0.800000011920929,
					0.800000011920929,
					0.800000011920929,
					1
				],
				"metallicFactor":0,
				"roughnessFactor":0.5
			}
		},
		{
			"doubleSided":true,
			"name":"Material.003",
			"pbrMetallicRoughness":{
				"baseColorFactor":[
					0.800000011920929,
					0.800000011920929,
					0.800000011920929,
					1
				],
				"metallicFactor":0,
				"roughnessFactor":0.5
			}
		},
		{
			"doubleSided":true,
			"name":"Material.004",
			"pbrMetallicRoughness":{
				"baseColorFactor":[
					0.800000011920929,
					0.800000011920929,
					0.800000011920929,
					1
				],
				"metallicFactor":0,
				"roughnessFactor":0.5
			}
		},
		{
			"doubleSided":true,
			"name":"Material.005",
			"pbrMetallicRoughness":{
				"baseColorFactor":[
					0.800000011920929,
					0.800000011920929,
					0.800000011920929,
					1
				],
				"metallicFactor":0,
				"roughnessFactor":0.5
			}
		},
		{
			"doubleSided":true,
			"name":"Material.006",
			"pbrMetallicRoughness":{
				"baseColorFactor":[
					0.800000011920929,
					0.800000011920929,
					0.800000011920929,
					1
				],
				"metallicFactor":0,
				"roughnessFactor":0.5
			}
		}
	],
	"meshes":[
		{
			"name":"Cube",
			"primitives":[
				{
					"attributes":{
						"POSITION":0,
						"NORMAL":1,
						"TEXCOORD_0":2,
						"TANGENT":3
					},
					"indices":4,
					"material":0
				}
			]
		},
		{
			"name":"Cylinder",
			"primitives":[
				{
					"attributes":{
						"POSITION":5,
						"NORMAL":6,
						"TEXCOORD_0":7
					},
					"indices":8,
					"material":0
				}
			]
		},
		{
			"name":"Cylinder.001",
			"primitives":[
				{
					"attributes":{
						"POSITION":9,
						"NORMAL":10,
						"TEXCOORD_0":11
					},
					"indices":8,
					"material":0
				}
			]
		},
		{
			"name":"Cylinder.002",
			"primitives":[
				{
					"attributes":{
						"POSITION":12,
						"NORMAL":13,
						"TEXCOORD_0":14
					},
					"indices":8,
					"material":0
				}
			]
		},
		{
			"name":"Cylinder.003",
			"primitives":[
				{
					"attributes":{
						"POSITION":15,
						"NORMAL":16,
						"TEXCOORD_0":17
					},
					"indices":8,
					"material":0
				}
			]
		},
		{
			"name":"Cube.001",
			"primitives":[
				{
					"attributes":{
						"POSITION":18,
						"NORMAL":19,
						"TEXCOORD_0":20,
						"TANGENT":21
					},
					"indices":4,
					"material":1
				}
			]
		},
		{
			"name":"Ball",
			"primitives":[
				{
					"attributes":{
						"POSITION":22,
						"NORMAL":23
					},
					"indices":24,
					"material":0
				}
			]
		},
		{
			"name":"Cube.002",
			"primitives":[
				{
					"attributes":{
						"POSITION":25,
						"NORMAL":26,
						"TEXCOORD_0":27,
						"TANGENT":28
					},
					"indices":4,
					"material":2
				}
			]
		},
		{
			"name":"Cube.003",
			"primitives":[
				{
					"attributes":{
						"POSITION":29,
						"NORMAL":30,
						"TEXCOORD_0":31,
						"TANGENT":32
					},
					"indices":4,
					"material":3
				}
			]
		},
		{
			"name":"Cube.004",
			"primitives":[
				{
					"attributes":{
						"POSITION":33,
						"NORMAL":34,
						"TEXCOORD_0":35,
						"TANGENT":36
					},
					"indices":4,
					"material":4
				}
			]
		},
		{
			"name":"Cube.005",
			"primitives":[
				{
					"attributes":{
						"POSITION":37,
						"NORMAL":38,
						"TEXCOORD_0":39,
						"TANGENT":40
					},
					"indices":4,
					"material":5
				}
			]
		},
		{
			"name":"Cube.006",
			"primitives":[
				{
					"attributes":{
						"POSITION":41,
						"NORMAL":42,
						"TEXCOORD_0":43
					},
					"indices":44,
					"material":6
				}
			]
		}
	],
	"accessors":[
		{
			"bufferView":0,
			"componentType":5126,
			"count":24,
			"max":[
				1,
				1,
				1
			],
			"min":[
				-1,
				-1,
				-1
			],
			"type":"VEC3"
		},
		{
			"bufferView":1,
			"componentType":5126,
			"count":24,
			"type":"VEC3"
		},
		{
			"bufferView":2,
			"componentType":5126,
			"count":24,
			"type":"VEC2"
		},
		{
			"bufferView":3,
			"componentType":5126,
			"count":24,
			"type":"VEC4"
		},
		{
			"bufferView":4,
			"componentType":5123,
			"count":36,
			"type":"SCALAR"
		},
		{
			"bufferView":5,
			"componentType":5126,
			"count":192,
			"max":[
				1,
				1,
				1
			],
			"min":[
				-1,
				-1,
				-1
			],
			"type":"VEC3"
		},
		{
			"bufferView":6,
			"componentType":5126,
			"count":192,
			"type":"VEC3"
		},
		{
			"bufferView":7,
			"componentType":5126,
			"count":192,
			"type":"VEC2"
		},
		{
			"bufferView":8,
			"componentType":5123,
			"count":372,
			"type":"SCALAR"
		},
		{
			"bufferView":9,
			"componentType":5126,
			"count":192,
			"max":[
				1,
				1,
				1
			],
			"min":[
				-1,
				-1,
				-1
			],
			"type":"VEC3"
		},
		{
			"bufferView":10,
			"componentType":5126,
			"count":192,
			"type":"VEC3"
		},
		{
			"bufferView":11,
			"componentType":5126,
			"count":192,
			"type":"VEC2"
		},
		{
			"bufferView":12,
			"componentType":5126,
			"count":192,
			"max":[
				1,
				1,
				1
			],
			"min":[
				-1,
				-1,
				-1
			],
			"type":"VEC3"
		},
		{
			"bufferView":13,
			"componentType":5126,
			"count":192,
			"type":"VEC3"
		},
		{
			"bufferView":14,
			"componentType":5126,
			"count":192,
			"type":"VEC2"
		},
		{
			"bufferView":15,
			"componentType":5126,
			"count":192,
			"max":[
				1,
				1,
				1
			],
			"min":[
				-1,
				-1,
				-1
			],
			"type":"VEC3"
		},
		{
			"bufferView":16,
			"componentType":5126,
			"count":192,
			"type":"VEC3"
		},
		{
			"bufferView":17,
			"componentType":5126,
			"count":192,
			"type":"VEC2"
		},
		{
			"bufferView":18,
			"componentType":5126,
			"count":24,
			"max":[
				1,
				1,
				1
			],
			"min":[
				-1,
				-1,
				-1
			],
			"type":"VEC3"
		},
		{
			"bufferView":19,
			"componentType":5126,
			"count":24,
			"type":"VEC3"
		},
		{
			"bufferView":20,
			"componentType":5126,
			"count":24,
			"type":"VEC2"
		},
		{
			"bufferView":21,
			"componentType":5126,
			"count":24,
			"type":"VEC4"
		},
		{
			"bufferView":22,
			"componentType":5126,
			"count":11946,
			"max":[
				1.0820642709732056,
				1.0820643901824951,
				1.0820643901824951
			],
			"min":[
				-1.0820643901824951,
				-1.0820643901824951,
				-1.0820642709732056
			],
			"type":"VEC3"
		},
		{
			"bufferView":23,
			"componentType":5126,
			"count":11946,
			"type":"VEC3"
		},
		{
			"bufferView":24,
			"componentType":5123,
			"count":46086,
			"type":"SCALAR"
		},
		{
			"bufferView":25,
			"componentType":5126,
			"count":24,
			"max":[
				1,
				1,
				1
			],
			"min":[
				-1,
				-1,
				-1
			],
			"type":"VEC3"
		},
		{
			"bufferView":26,
			"componentType":5126,
			"count":24,
			"type":"VEC3"
		},
		{
			"bufferView":27,
			"componentType":5126,
			"count":24,
			"type":"VEC2"
		},
		{
			"bufferView":28,
			"componentType":5126,
			"count":24,
			"type":"VEC4"
		},
		{
			"bufferView":29,
			"componentType":5126,
			"count":24,
			"max":[
				1,
				1,
				1
			],
			"min":[
				-1,
				-1,
				-1
			],
			"type":"VEC3"
		},
		{
			"bufferView":30,
			"componentType":5126,
			"count":24,
			"type":"VEC3"
		},
		{
			"bufferView":31,
			"componentType":5126,
			"count":24,
			"type":"VEC2"
		},
		{
			"bufferView":32,
			"componentType":5126,
			"count":24,
			"type":"VEC4"
		},
		{
			"bufferView":33,
			"componentType":5126,
			"count":24,
			"max":[
				1,
				1,
				1
			],
			"min":[
				-1,
				-1,
				-1
			],
			"type":"VEC3"
		},
		{
			"bufferView":34,
			"componentType":5126,
			"count":24,
			"type":"VEC3"
		},
		{
			"bufferView":35,
			"componentType":5126,
			"count":24,
			"type":"VEC2"
		},
		{
			"bufferView":36,
			"componentType":5126,
			"count":24,
			"type":"VEC4"
		},
		{
			"bufferView":37,
			"componentType":5126,
			"count":24,
			"max":[
				1,
				1,
				1
			],
			"min":[
				-1,
				-1,
				-1
			],
			"type":"VEC3"
		},
		{
			"bufferView":38,
			"componentType":5126,
			"count":24,
			"type":"VEC3"
		},
		{
			"bufferView":39,
			"componentType":5126,
			"count":24,
			"type":"VEC2"
		},
		{
			"bufferView":40,
			"componentType":5126,
			"count":24,
			"type":"VEC4"
		},
		{
			"bufferView":41,
			"componentType":5126,
			"count":86,
			"max":[
				1,
				1,
				1
			],
			"min":[
				-1,
				-1,
				-1
			],
			"type":"VEC3"
		},
		{
			"bufferView":42,
			"componentType":5126,
			"count":86,
			"type":"VEC3"
		},
		{
			"bufferView":43,
			"componentType":5126,
			"count":86,
			"type":"VEC2"
		},
		{
			"bufferView":44,
			"componentType":5123,
			"count":150,
			"type":"SCALAR"
		}
	],
	"bufferViews":[
		{
			"buffer":0,
			"byteLength":288,
			"byteOffset":0,
			"target":34962
		},
		{
			"buffer":0,
			"byteLength":288,
			"byteOffset":288,
			"target":34962
		},
		{
			"buffer":0,
			"byteLength":192,
			"byteOffset":576,
			"target":34962
		},
		{
			"buffer":0,
			"byteLength":384,
			"byteOffset":768,
			"target":34962
		},
		{
			"buffer":0,
			"byteLength":72,
			"byteOffset":1152,
			"target":34963
		},
		{
			"buffer":0,
			"byteLength":2304,
			"byteOffset":1224,
			"target":34962
		},
		{
			"buffer":0,
			"byteLength":2304,
			"byteOffset":3528,
			"target":34962
		},
		{
			"buffer":0,
			"byteLength":1536,
			"byteOffset":5832,
			"target":34962
		},
		{
			"buffer":0,
			"byteLength":744,
			"byteOffset":7368,
			"target":34963
		},
		{
			"buffer":0,
			"byteLength":2304,
			"byteOffset":8112,
			"target":34962
		},
		{
			"buffer":0,
			"byteLength":2304,
			"byteOffset":10416,
			"target":34962
		},
		{
			"buffer":0,
			"byteLength":1536,
			"byteOffset":12720,
			"target":34962
		},
		{
			"buffer":0,
			"byteLength":2304,
			"byteOffset":14256,
			"target":34962
		},
		{
			"buffer":0,
			"byteLength":2304,
			"byteOffset":16560,
			"target":34962
		},
		{
			"buffer":0,
			"byteLength":1536,
			"byteOffset":18864,
			"target":34962
		},
		{
			"buffer":0,
			"byteLength":2304,
			"byteOffset":20400,
			"target":34962
		},
		{
			"buffer":0,
			"byteLength":2304,
			"byteOffset":22704,
			"target":34962
		},
		{
			"buffer":0,
			"byteLength":1536,
			"byteOffset":25008,
			"target":34962
		},
		{
			"buffer":0,
			"byteLength":288,
			"byteOffset":26544,
			"target":34962
		},
		{
			"buffer":0,
			"byteLength":288,
			"byteOffset":26832,
			"target":34962
		},
		{
			"buffer":0,
			"byteLength":192,
			"byteOffset":27120,
			"target":34962
		},
		{
			"buffer":0,
			"byteLength":384,
			"byteOffset":27312,
			"target":34962
		},
		{
			"buffer":0,
			"byteLength":143352,
			"byteOffset":27696,
			"target":34962
		},
		{
			"buffer":0,
			"byteLength":143352,
			"byteOffset":171048,
			"target":34962
		},
		{
			"buffer":0,
			"byteLength":92172,
			"byteOffset":314400,
			"target":34963
		},
		{
			"buffer":0,
			"byteLength":288,
			"byteOffset":406572,
			"target":34962
		},
		{
			"buffer":0,
			"byteLength":288,
			"byteOffset":406860,
			"target":34962
		},
		{
			"buffer":0,
			"byteLength":192,
			"byteOffset":407148,
			"target":34962
		},
		{
			"buffer":0,
			"byteLength":384,
			"byteOffset":407340,
			"target":34962
		},
		{
			"buffer":0,
			"byteLength":288,
			"byteOffset":407724,
			"target":34962
		},
		{
			"buffer":0,
			"byteLength":288,
			"byteOffset":408012,
			"target":34962
		},
		{
			"buffer":0,
			"byteLength":192,
			"byteOffset":408300,
			"target":34962
		},
		{
			"buffer":0,
			"byteLength":384,
			"byteOffset":408492,
			"target":34962
		},
		{
			"buffer":0,
			"byteLength":288,
			"byteOffset":408876,
			"target":34962
		},
		{
			"buffer":0,
			"byteLength":288,
			"byteOffset":409164,
			"target":34962
		},
		{
			"buffer":0,
			"byteLength":192,
			"byteOffset":409452,
			"target":34962
		},
		{
			"buffer":0,
			"byteLength":384,
			"byteOffset":409644,
			"target":34962
		},
		{
			"buffer":0,
			"byteLength":288,
			"byteOffset":410028,
			"target":34962
		},
		{
			"buffer":0,
			"byteLength":288,
			"byteOffset":410316,
			"target":34962
		},
		{
			"buffer":0,
			"byteLength":192,
			"byteOffset":410604,
			"target":34962
		},
		{
			"buffer":0,
			"byteLength":384,
			"byteOffset":410796,
			"target":34962
		},
		{
			"buffer":0,
			"byteLength":1032,
			"byteOffset":411180,
			"target":34962
		},
		{
			"buffer":0,
			"byteLength":1032,
			"byteOffset":412212,
			"target":34962
		},
		{
			"buffer":0,
			"byteLength":688,
			"byteOffset":413244,
			"target":34962
		},
		{
			"buffer":0,
			"byteLength":300,
			"byteOffset":413932,
			"target":34963
		}
	],
	"buffers":[
		{
			"byteLength":414232,
			"uri":"LightRoom.bin"
		}
	]
}
